<?xml version="1.0" encoding="UTF-8"?>
<svg xmlns="http://www.w3.org/2000/svg" viewBox="0 0 6023.76 2895.41">
  <defs>
    <style>
      .cls-1 {
        fill: #e32d91;
      }

      .cls-1, .cls-2, .cls-3, .cls-4, .cls-5 {
        mix-blend-mode: multiply;
      }

      .cls-6 {
        isolation: isolate;
      }

      .cls-7 {
        fill: #1b1b1b;
      }

      .cls-2 {
        fill: #f79823;
      }

      .cls-3 {
        fill: #f4ce1b;
      }

      .cls-8 {
        fill: #191819;
      }

      .cls-4 {
        fill: #72be7f;
      }

      .cls-5 {
        fill: #2f8fcb;
      }
    </style>
  </defs>
  <g class="cls-6">
    <g id="Layer_2" data-name="Layer 2">
      <g id="Black">
        <g>
          <circle class="cls-1" cx="3884.19" cy="372.63" r="372.63"/>
          <path class="cls-7" d="m692.14,1233.01c-30.68-27.14-60.19-46.88-88.51-59.33-25.37-12.33-55.17-18.55-89.39-18.55-63.14,0-112.7,20.65-148.69,61.96-37.17,40.71-55.76,96.77-55.76,168.17s19.18,122.73,57.53,162.86c37.17,41.3,88.8,61.96,154.89,61.96,31.27,0,61.37-6.49,90.28-19.47,30.68-14.75,57.24-34.22,79.66-58.42v273.53c-37.76,20.06-75.82,35.93-114.18,47.73-40.71,9.44-79.36,14.16-115.95,14.16-138.07,0-249.3-44.19-333.68-132.7-28.91-29.5-52.68-62.02-71.23-97.43-18.62-35.4-32.78-73.69-42.48-115-9.77-41.3-14.62-86.48-14.62-135.45,0-141.02,43.21-255.63,129.68-343.87,86.41-88.18,198.39-132.3,335.87-132.3,43.07,0,84.08,4.72,123.03,14.16,37.76,9.44,72.28,23.34,103.56,41.63v266.38Z"/>
          <path class="cls-7" d="m851.71,2227.26V917.95h349.96v1309.31h-349.96Z"/>
          <path class="cls-7" d="m2458.9,1405.94c0,65.18-13.66,126-40.9,182.37-28.44,59.9-67.44,111.58-116.85,155.03-55.75,48.15-113.4,83.06-172.95,104.79-62.09,22.9-130.86,34.32-206.18,34.32s-144.8-11.42-206.25-34.32c-62.72-22.9-120.51-57.68-173.45-104.4-52.86-46.65-91.09-98.46-114.46-155.42-27.31-54.68-40.9-115.43-40.9-182.37s13.59-126.52,40.9-184.07c25.27-58.2,63.63-109.82,114.95-155.03,50.05-44.63,107.7-79.02,172.95-103.09,62.09-22.32,130.79-33.47,206.25-33.47s143.46,11.16,206.18,33.47c65.25,24.08,122.9,58.46,172.95,103.09,52.58,43.98,91.51,95.72,116.85,155.03,27.24,57.55,40.9,118.89,40.9,184.07Zm-336.4,0c0-66.36-18.02-118.62-54.2-156.8-37.38-38.17-86.16-57.29-146.27-57.29s-110.94,19.12-146.41,57.29c-36.04,37-54.13,89.26-54.13,156.8s17.39,117.45,52.3,155.03c38.01,38.76,87.43,58.14,148.24,58.14s110.23-19.38,148.24-58.14c34.77-38.76,52.23-90.44,52.23-155.03Z"/>
          <path class="cls-7" d="m2939.51,1849.17l-433.95-920.39h312.09l238.5,489.94,238.25-489.94h304.73l-430.48,920.39h-229.14Z"/>
          <path class="cls-7" d="m3730.41,1904.62v-982.65h307.55v982.65h-307.55Z"/>
          <path class="cls-7" d="m4632.03,1206.3v-276.03h-322.64v276.03h-108.65v230.95h108.65l1.48,616.29h321.16v-616.29l166.56-1.15v-228.8l-166.56-1Z"/>
          <path class="cls-7" d="m5421.86,1385.08l236.17-439.48h365.73l-702.64,1295.29h-381.08l293.8-539.07-413.88-771.55h379.09l222.81,454.81Z"/>
          <circle class="cls-4" cx="4979.28" cy="372.63" r="372.63"/>
          <g>
            <path class="cls-8" d="m144.7,2513.94v244.86c0,20.69,0,42.18.42,54.81h-29.78c-.57-5.47-1.14-19.53-1.14-28.68-6.59,18.54-20.18,32.47-50.16,32.47-44.4,0-63.31-37.74-63.31-112.73,0-68.13,25.12-108.01,69.98-108.01,27.62,0,38.44,11.8,43.2,22.25v-104.96h30.8Zm-112.33,191.02c0,61.58,13.98,85.04,40.16,85.04,33.11,0,41.97-28.31,41.97-86.18,0-62.24-8.66-79.9-39.59-79.9-25.34,0-42.54,22.32-42.54,81.04Z"/>
            <path class="cls-8" d="m246.88,2712.65c0,41.81,7.15,78.34,41.01,78.34s37.79-31.72,38.9-38.21h30.17c-.57,5.53-6.56,64.76-69.37,64.76s-71.63-57.59-71.63-110.71c0-67.55,23.13-110.18,73.28-110.18,56.12,0,69.4,46.2,69.4,99.52,0,4.07-.15,11.21-.57,16.48h-111.19Zm80.99-24.19c0-36.71-7.79-65.4-38.9-65.4-39.02,0-40.98,50.76-41.52,65.4h80.42Z"/>
            <path class="cls-8" d="m429.33,2813.61v-299.67h30.8v299.67h-30.8Z"/>
            <path class="cls-8" d="m542.55,2600.17h30.8v213.44h-30.8v-213.44Zm.15-86.23h30.8v44.13h-30.8v-44.13Z"/>
            <path class="cls-8" d="m667.16,2600.17c17.52,69.16,38.73,152.56,42.96,178.78h.42c2.85-23.54,34.86-135.24,45.21-178.78h31.07l-61.03,213.44h-33.37l-57.94-213.44h32.68Z"/>
            <path class="cls-8" d="m866.44,2712.65c0,41.81,7.15,78.34,41.01,78.34s37.79-31.72,38.9-38.21h30.17c-.57,5.53-6.56,64.76-69.37,64.76s-71.63-57.59-71.63-110.71c0-67.55,23.13-110.18,73.28-110.18,56.12,0,69.4,46.2,69.4,99.52,0,4.07-.15,11.21-.57,16.48h-111.19Zm80.99-24.19c0-36.71-7.79-65.4-38.9-65.4-39.02,0-40.98,50.76-41.52,65.4h80.42Z"/>
            <path class="cls-8" d="m1048.89,2672.89c0-34.02,0-57.42-.42-72.72h29.63c.42,5.54.99,15.47.99,38.08,9.08-25.77,29.66-41.05,56.43-41.32v34c-36.72,1.18-55.83,24.26-55.83,63.48v119.21h-30.8v-140.72Z"/>
            <path class="cls-8" d="m1195.37,2600.17h30.8v213.44h-30.8v-213.44Zm.15-86.23h30.8v44.13h-30.8v-44.13Z"/>
            <path class="cls-8" d="m1308.59,2666.18c0-43.68-.27-56.13-.42-66.01h29.78c.57,5.2,1.14,13.64,1.14,27.99,7.13-16.65,21.81-31.66,50.55-31.66,30.91,0,54.9,17.59,54.9,65.02v152.08h-31.07v-145.98c0-26.06-8.53-43.71-32.79-43.71-28.8,0-41.02,18.9-41.02,62.67v127.01h-31.07v-147.42Z"/>
            <path class="cls-8" d="m1660.36,2799.98c0,56.07-13.5,95.43-74.72,95.43-55.13,0-66.97-35.8-68.23-58.81h31.19c.84,11.72,7.81,32.56,38.06,32.56,35.86,0,43.21-26.16,43.21-69.18v-19.54c-7.6,21.73-25.65,32.57-49.69,32.57-43.06,0-64.33-36.51-64.33-103.6,0-76.8,28.42-112.76,68.96-112.76,28.89,0,41.15,14.01,45.06,27.87-.12-9.43.99-19.97,1.56-24.35h29.51c-.42,11.17-.57,32.79-.57,61.61v138.2Zm-112.73-91.16c0,51.78,14.18,77.07,40.73,77.07,33.09,0,42.07-32.64,42.07-82.32s-6.82-79.64-39.44-79.64c-28.33,0-43.36,29.45-43.36,84.89Z"/>
            <path class="cls-8" d="m1983.11,2748.44c-.84,11.33-5.45,68.95-67.84,68.95-55.82,0-70.85-49.27-70.85-111.25s19.49-109.64,73.65-109.64c61.97,0,64.89,57.28,65.04,67.36h-31.49c-.42-8.69-3.29-40.81-33.7-40.81s-42.01,33.6-42.01,82.96c0,53.07,11.6,84.82,40.51,84.82,30.86,0,34.57-31.13,36.1-42.4h30.59Z"/>
            <path class="cls-8" d="m2184.48,2755.16c0,26.85,0,48.17.42,58.45h-29.36c-.99-6.19-1.41-14.66-1.56-28.44-7.66,21.14-25.53,32.23-50.7,32.23s-53.36-10.16-53.36-63.76v-153.47h31.07v146.15c0,27.27,7.59,43.93,32.04,43.93s40.38-14.43,40.38-60.55v-129.53h31.07v154.99Z"/>
            <path class="cls-8" d="m2244.35,2600.17h30.1v-56.87h30.52v56.87h37.18v26.4h-37.18v140.04c0,14.65,3.19,23.83,19.31,23.83,5.05,0,11.11-.27,15.05-1.11v23.67c-7.23,2.85-18.01,3.54-25.19,3.54-25.08,0-39.69-10.21-39.69-43.82v-146.16h-30.1v-26.4Z"/>
            <path class="cls-8" d="m2371.05,2600.17h30.1v-56.87h30.52v56.87h37.18v26.4h-37.18v140.04c0,14.65,3.19,23.83,19.31,23.83,5.05,0,11.11-.27,15.05-1.11v23.67c-7.23,2.85-18.01,3.54-25.19,3.54-25.08,0-39.69-10.21-39.69-43.82v-146.16h-30.1v-26.4Z"/>
            <path class="cls-8" d="m2530.88,2600.17h30.8v213.44h-30.8v-213.44Zm.15-86.23h30.8v44.13h-30.8v-44.13Z"/>
            <path class="cls-8" d="m2644.1,2666.18c0-43.68-.27-56.13-.42-66.01h29.78c.57,5.2,1.14,13.64,1.14,27.99,7.13-16.65,21.81-31.66,50.55-31.66,30.91,0,54.9,17.59,54.9,65.02v152.08h-31.07v-145.98c0-26.06-8.53-43.71-32.79-43.71-28.8,0-41.02,18.9-41.02,62.67v127.01h-31.07v-147.42Z"/>
            <path class="cls-8" d="m2995.88,2799.98c0,56.07-13.5,95.43-74.72,95.43-55.13,0-66.97-35.8-68.23-58.81h31.19c.84,11.72,7.81,32.56,38.06,32.56,35.86,0,43.21-26.16,43.21-69.18v-19.54c-7.6,21.73-25.65,32.57-49.69,32.57-43.07,0-64.33-36.51-64.33-103.6,0-76.8,28.42-112.76,68.96-112.76,28.89,0,41.15,14.01,45.06,27.87-.12-9.43.99-19.97,1.56-24.35h29.51c-.42,11.17-.57,32.79-.57,61.61v138.2Zm-112.73-91.16c0,51.78,14.18,77.07,40.73,77.07,33.09,0,42.07-32.64,42.07-82.32s-6.82-79.64-39.45-79.64c-28.33,0-43.36,29.45-43.36,84.89Z"/>
            <path class="cls-8" d="m3210.86,2712.65c0,41.81,7.15,78.34,41.01,78.34s37.79-31.72,38.9-38.21h30.17c-.57,5.53-6.56,64.76-69.37,64.76s-71.63-57.59-71.63-110.71c0-67.55,23.13-110.18,73.28-110.18,56.12,0,69.4,46.2,69.4,99.52,0,4.07-.15,11.21-.57,16.48h-111.19Zm80.99-24.19c0-36.71-7.79-65.4-38.9-65.4-39.02,0-40.98,50.76-41.52,65.4h80.42Z"/>
            <path class="cls-8" d="m3530,2513.94v244.86c0,20.69,0,42.18.42,54.81h-29.78c-.57-5.47-1.14-19.53-1.14-28.68-6.59,18.54-20.18,32.47-50.16,32.47-44.4,0-63.31-37.74-63.31-112.73,0-68.13,25.12-108.01,69.98-108.01,27.62,0,38.44,11.8,43.2,22.25v-104.96h30.79Zm-112.33,191.02c0,61.58,13.98,85.04,40.16,85.04,33.11,0,41.97-28.31,41.97-86.18,0-62.24-8.66-79.9-39.59-79.9-25.34,0-42.54,22.32-42.54,81.04Z"/>
            <path class="cls-8" d="m3745.5,2799.98c0,56.07-13.5,95.43-74.72,95.43-55.13,0-66.97-35.8-68.23-58.81h31.19c.84,11.72,7.81,32.56,38.06,32.56,35.86,0,43.21-26.16,43.21-69.18v-19.54c-7.6,21.73-25.65,32.57-49.69,32.57-43.07,0-64.33-36.51-64.33-103.6,0-76.8,28.42-112.76,68.96-112.76,28.89,0,41.15,14.01,45.06,27.87-.12-9.43.99-19.97,1.56-24.35h29.51c-.42,11.17-.57,32.79-.57,61.61v138.2Zm-112.73-91.16c0,51.78,14.18,77.07,40.73,77.07,33.09,0,42.07-32.64,42.07-82.32s-6.82-79.64-39.45-79.64c-28.33,0-43.36,29.45-43.36,84.89Z"/>
            <path class="cls-8" d="m3848.52,2712.65c0,41.81,7.15,78.34,41.01,78.34s37.79-31.72,38.9-38.21h30.17c-.57,5.53-6.56,64.76-69.37,64.76s-71.63-57.59-71.63-110.71c0-67.55,23.13-110.18,73.28-110.18,56.12,0,69.4,46.2,69.4,99.52,0,4.07-.15,11.21-.57,16.48h-111.19Zm80.99-24.19c0-36.71-7.79-65.4-38.9-65.4-39.02,0-40.98,50.76-41.52,65.4h80.42Z"/>
            <path class="cls-8" d="m4116.53,2600.17h30.1v-56.87h30.52v56.87h37.18v26.4h-37.18v140.04c0,14.65,3.19,23.83,19.31,23.83,5.05,0,11.11-.27,15.05-1.11v23.67c-7.23,2.85-18.01,3.54-25.19,3.54-25.08,0-39.69-10.21-39.69-43.82v-146.16h-30.1v-26.4Z"/>
            <path class="cls-8" d="m4293.42,2712.65c0,41.81,7.15,78.34,41.01,78.34s37.79-31.72,38.9-38.21h30.17c-.57,5.53-6.56,64.76-69.37,64.76s-71.63-57.59-71.63-110.71c0-67.55,23.13-110.18,73.28-110.18,56.12,0,69.4,46.2,69.4,99.52,0,4.07-.15,11.21-.57,16.48h-111.19Zm80.99-24.19c0-36.71-7.79-65.4-38.9-65.4-39.02,0-40.98,50.76-41.52,65.4h80.42Z"/>
            <path class="cls-8" d="m4607.44,2748.44c-.84,11.33-5.45,68.95-67.84,68.95-55.82,0-70.85-49.27-70.85-111.25s19.49-109.64,73.65-109.64c61.97,0,64.89,57.28,65.04,67.36h-31.49c-.42-8.69-3.29-40.81-33.7-40.81s-42.01,33.6-42.01,82.96c0,53.07,11.6,84.82,40.51,84.82,30.86,0,34.57-31.13,36.1-42.4h30.59Z"/>
            <path class="cls-8" d="m4706.72,2513.94v112.26c7.45-17.4,24.04-29.7,51.12-29.7,31.33,0,53.76,19.52,53.76,65.35v151.76h-31.07v-145.43c0-26.19-7.57-44.25-33.75-44.25-29.32,0-40.06,24.12-40.06,61.39v128.29h-31.07v-299.67h31.07Z"/>
            <path class="cls-8" d="m4893.41,2666.18c0-43.68-.27-56.13-.42-66.01h29.78c.57,5.2,1.14,13.64,1.14,27.99,7.13-16.65,21.81-31.66,50.55-31.66,30.91,0,54.89,17.59,54.89,65.02v152.08h-31.07v-145.98c0-26.06-8.53-43.71-32.79-43.71-28.8,0-41.02,18.9-41.02,62.67v127.01h-31.07v-147.42Z"/>
            <path class="cls-8" d="m5247.81,2704.39c0,75.08-25.26,113.16-73.46,113.16s-73.41-36.67-73.41-112.44,28.9-108.46,74.72-108.46,72.14,36.13,72.14,107.74Zm-115.38.84c0,58.06,14.47,85.61,42.24,85.61s41.65-27.95,41.65-85.86c0-54.6-13.53-81.48-41.8-81.48s-42.09,23.94-42.09,81.73Z"/>
            <path class="cls-8" d="m5319.37,2813.61v-299.67h30.79v299.67h-30.79Z"/>
            <path class="cls-8" d="m5568.95,2704.39c0,75.08-25.26,113.16-73.46,113.16s-73.41-36.67-73.41-112.44,28.9-108.46,74.72-108.46,72.14,36.13,72.14,107.74Zm-115.38.84c0,58.06,14.47,85.61,42.24,85.61s41.65-27.95,41.65-85.86c0-54.6-13.53-81.48-41.8-81.48s-42.09,23.94-42.09,81.73Z"/>
            <path class="cls-8" d="m5775.09,2799.98c0,56.07-13.5,95.43-74.72,95.43-55.13,0-66.97-35.8-68.23-58.81h31.19c.84,11.72,7.81,32.56,38.06,32.56,35.86,0,43.21-26.16,43.21-69.18v-19.54c-7.6,21.73-25.65,32.57-49.69,32.57-43.07,0-64.33-36.51-64.33-103.6,0-76.8,28.42-112.76,68.96-112.76,28.89,0,41.15,14.01,45.06,27.87-.12-9.43.99-19.97,1.56-24.35h29.51c-.42,11.17-.57,32.79-.57,61.61v138.2Zm-112.73-91.16c0,51.78,14.18,77.07,40.73,77.07,33.09,0,42.07-32.64,42.07-82.32s-6.82-79.64-39.45-79.64c-28.33,0-43.36,29.45-43.36,84.89Z"/>
            <path class="cls-8" d="m5833.46,2600.17h33.67c23.01,89.32,40.73,153.26,43.53,176.12h.42c4.24-24.53,23.41-97.67,43.68-176.12h31.88l-62.45,224.21c-17.31,62.5-33.89,70.89-64.2,70.89-4.53,0-11.05-.42-15.19-1.41v-27.39c2.95.69,9.31,1.11,14.09,1.11,22.33,0,28.52-15.21,37.1-49.54l-62.55-217.87h0Z"/>
          </g>
          <circle class="cls-5" cx="4412.39" cy="372.63" r="372.63"/>
          <circle class="cls-3" cx="2817.65" cy="372.63" r="372.63"/>
          <circle class="cls-2" cx="3319.56" cy="372.63" r="372.63"/>
        </g>
      </g>
    </g>
  </g>
</svg>